<svg version="1.1" id="Layer_1" xmlns="http://www.w3.org/2000/svg" xmlns:xlink="http://www.w3.org/1999/xlink" x="0px" y="0px"
	 width="100%" viewBox="0 0 2560 1564" enable-background="new 0 0 2560 1564" xml:space="preserve">
<path fill="#002F6C" opacity="1.000000" stroke="none" 
	d="
M1139.000000,1565.000000 
	C997.309998,1565.000000 855.620056,1565.000000 713.371643,1564.802979 
	C712.665649,1564.347412 712.463867,1564.141846 712.142822,1563.525635 
	C712.077759,1374.185425 712.077759,1185.309326 712.077759,996.188538 
	C709.157349,996.188538 707.009460,996.188538 704.861511,996.188538 
	C472.402374,996.188538 239.943268,996.188965 7.484140,996.180664 
	C5.322758,996.180603 3.161380,996.062866 1.000000,996.000000 
	C1.000000,854.309998 1.000000,712.620056 1.462389,570.382935 
	C238.496658,569.835754 475.068542,569.835754 712.061646,569.835754 
	C712.061646,567.327026 712.061646,565.364319 712.061646,563.401550 
	C712.061646,378.267700 712.061157,193.133881 712.067688,8.000037 
	C712.067810,6.003451 712.159119,4.006868 712.379517,1.876116 
	C712.750793,1.524919 712.900452,1.277603 713.000000,1.000000 
	C854.690002,1.000000 996.380066,1.000000 1138.473145,1.465108 
	C1138.876343,191.148163 1138.876343,380.366119 1138.876343,569.811462 
	C1141.829224,569.811462 1143.979736,569.811523 1146.130127,569.811523 
	C1615.591797,569.811523 2085.053467,569.811218 2554.515137,569.819275 
	C2556.676758,569.819336 2558.838379,569.937195 2561.000000,570.000000 
	C2561.000000,711.690002 2561.000000,853.379944 2560.537598,995.617065 
	C2557.908447,996.172363 2555.742188,996.187561 2553.575684,996.187622 
	C2084.277344,996.188660 1614.978760,996.188538 1145.680298,996.188538 
	C1143.557983,996.188538 1141.435791,996.188538 1138.859375,996.188538 
	C1138.859375,998.635254 1138.859375,1000.592651 1138.859375,1002.550049 
	C1138.859375,1188.202881 1138.859009,1373.855835 1138.865234,1559.508667 
	C1138.865234,1561.339111 1138.953125,1563.169556 1139.000000,1565.000000 
z"/>
<path fill="#FFFFFF" opacity="1.000000" stroke="none" 
	d="
M2561.000000,569.531372 
	C2558.838379,569.937195 2556.676758,569.819336 2554.515137,569.819275 
	C2085.053467,569.811218 1615.591797,569.811523 1146.130127,569.811523 
	C1143.979736,569.811523 1141.829224,569.811462 1138.876343,569.811462 
	C1138.876343,380.366119 1138.876343,191.148163 1138.938232,1.465108 
	C1612.895874,1.000000 2086.791748,1.000000 2561.000000,1.000000 
	C2561.000000,190.354111 2561.000000,379.708405 2561.000000,569.531372 
z"/>
<path fill="#FFFFFF" opacity="1.000000" stroke="none" 
	d="
M1139.468628,1565.000000 
	C1138.953125,1563.169556 1138.865234,1561.339111 1138.865234,1559.508667 
	C1138.859009,1373.855835 1138.859375,1188.202881 1138.859375,1002.550049 
	C1138.859375,1000.592651 1138.859375,998.635254 1138.859375,996.188538 
	C1141.435791,996.188538 1143.557983,996.188538 1145.680298,996.188538 
	C1614.978760,996.188538 2084.277344,996.188660 2553.575684,996.187622 
	C2555.742188,996.187561 2557.908447,996.172363 2560.537598,996.082153 
	C2561.000000,1185.625000 2561.000000,1375.250000 2561.000000,1565.000000 
	C2087.312500,1565.000000 1613.624878,1565.000000 1139.468628,1565.000000 
z"/>
<path fill="#FFFFFF" opacity="1.000000" stroke="none" 
	d="
M712.207886,2.010283 
	C712.159119,4.006868 712.067810,6.003451 712.067688,8.000037 
	C712.061157,193.133881 712.061646,378.267700 712.061646,563.401550 
	C712.061646,565.364319 712.061646,567.327026 712.061646,569.835754 
	C475.068542,569.835754 238.496658,569.835754 1.462389,569.917847 
	C1.000000,380.398132 1.000000,190.796295 1.000000,1.000000 
	C237.687531,1.000000 474.375092,1.000000 711.543945,1.260654 
	C712.086182,1.684299 712.147034,1.847291 712.207886,2.010283 
z"/>
<path fill="#FFFFFF" opacity="1.000000" stroke="none" 
	d="
M1.000000,996.468628 
	C3.161380,996.062866 5.322758,996.180603 7.484140,996.180664 
	C239.943268,996.188965 472.402374,996.188538 704.861511,996.188538 
	C707.009460,996.188538 709.157349,996.188538 712.077759,996.188538 
	C712.077759,1185.309326 712.077759,1374.185425 712.051514,1563.770142 
	C712.016846,1564.652344 712.008423,1564.826172 712.000000,1565.000000 
	C475.080994,1565.000000 238.161972,1565.000000 1.000000,1565.000000 
	C1.000000,1375.645874 1.000000,1186.291626 1.000000,996.468628 
z"/>
<path fill="#1C467C" opacity="1.000000" stroke="none" 
	d="
M712.379517,1.876115 
	C712.147034,1.847291 712.086182,1.684299 712.012634,1.260654 
	C712.000000,1.000000 712.500000,1.000000 712.750000,1.000000 
	C712.900452,1.277603 712.750793,1.524919 712.379517,1.876115 
z"/>
<path fill="#1C467C" opacity="1.000000" stroke="none" 
	d="
M712.250000,1565.000000 
	C712.008423,1564.826172 712.016846,1564.652344 712.116516,1564.234131 
	C712.463867,1564.141846 712.665649,1564.347412 712.906616,1564.802979 
	C713.000000,1565.000000 712.500000,1565.000000 712.250000,1565.000000 
z"/>
</svg>