<svg version="1.1" id="Layer_1" xmlns="http://www.w3.org/2000/svg" xmlns:xlink="http://www.w3.org/1999/xlink" x="0px" y="0px"
	 width="100%" viewBox="0 0 2560 1536" enable-background="new 0 0 2560 1536" xml:space="preserve">
<path fill="#000000" opacity="1.000000" stroke="none" 
	d="
M1.000000,513.000000 
	C1.000000,342.352478 1.000000,171.704941 1.000000,1.028702 
	C854.218506,1.028702 1707.437012,1.028702 2561.000000,1.028702 
	C2561.000000,171.365921 2561.000000,341.732056 2560.549072,512.549072 
	C1707.065430,513.000000 854.032715,513.000000 1.000000,513.000000 
z"/>
<path fill="#DD0000" opacity="1.000000" stroke="none" 
	d="
M1.000000,513.450928 
	C854.032715,513.000000 1707.065430,513.000000 2560.549072,513.000000 
	C2561.000000,683.366028 2561.000000,853.732117 2560.552246,1024.549072 
	C1707.069824,1025.000000 854.034912,1025.000000 1.000000,1025.000000 
	C1.000000,854.633911 1.000000,684.267883 1.000000,513.450928 
z"/>
<path fill="#FFCE00" opacity="1.000000" stroke="none" 
	d="
M1.000000,1025.447632 
	C854.034912,1025.000000 1707.069824,1025.000000 2560.552246,1025.000000 
	C2561.000000,1195.647827 2561.000000,1366.295776 2561.000000,1536.971802 
	C1707.779541,1536.971802 854.559021,1536.971802 1.000000,1536.971802 
	C1.000000,1366.631958 1.000000,1196.263550 1.000000,1025.447632 
z"/>
</svg>