<svg version="1.1" id="Layer_1" xmlns="http://www.w3.org/2000/svg" xmlns:xlink="http://www.w3.org/1999/xlink" x="0px" y="0px"
	 width="100%" viewBox="0 0 275 183" enable-background="new 0 0 275 183" xml:space="preserve">
<path fill="#006B3F" opacity="1.000000" stroke="none" 
	d="
M276.000000,123.000000 
	C276.000000,143.310898 276.000000,163.621811 276.000000,183.966354 
	C184.456894,183.966354 92.913765,183.966354 1.000000,183.966354 
	C1.000000,163.980637 1.000000,143.958969 1.250366,123.459747 
	C1.661234,122.935966 1.821735,122.889771 2.447780,122.910530 
	C13.210394,122.985344 23.507502,123.015030 33.804523,122.996880 
	C61.867977,122.947426 89.931396,122.877769 118.462364,122.858665 
	C131.622528,122.850021 144.315140,122.798813 157.472168,122.812790 
	C196.961288,122.866501 235.986023,122.855042 275.253296,122.912880 
	C275.663910,122.988121 275.831970,122.994057 276.000000,123.000000 
z"/>
<path fill="#CE1126" opacity="1.000000" stroke="none" 
	d="
M1.000000,61.000000 
	C1.000000,41.022171 1.000000,21.044342 1.000000,1.033256 
	C92.542870,1.033256 184.085754,1.033256 276.000000,1.033256 
	C276.000000,20.686005 276.000000,40.374344 275.822052,60.645905 
	C275.418701,61.403515 275.227570,61.609680 274.601868,61.915363 
	C267.650787,61.995811 261.168549,62.011967 254.686279,62.020679 
	C217.123962,62.071159 179.561630,62.119884 141.533569,62.112335 
	C118.963539,62.044060 96.859215,62.050282 74.754951,62.016506 
	C50.491852,61.979431 26.228804,61.905495 1.827560,61.681679 
	C1.486837,61.307404 1.257041,61.135490 1.000000,61.000000 
z"/>
<path fill="#FCD116" opacity="1.000000" stroke="none" 
	d="
M1.965733,61.847626 
	C26.228804,61.905495 50.491852,61.979431 74.754951,62.016506 
	C96.859215,62.050282 118.963539,62.044060 141.517365,62.453506 
	C142.208313,64.768890 142.196579,66.761276 142.738541,68.589523 
	C144.377075,74.116837 146.230469,79.580452 147.613342,85.166260 
	C146.413773,83.964630 145.332703,82.760361 144.834717,81.350174 
	C142.715729,75.349739 140.769409,69.288330 138.492538,62.445213 
	C136.178467,69.419189 133.910553,75.465881 132.223267,81.670471 
	C131.375626,84.787483 129.839783,85.477859 126.940231,85.396736 
	C120.685890,85.221733 114.423264,85.342926 106.604027,85.342926 
	C112.960709,89.962883 118.050621,93.796120 123.292702,97.408554 
	C125.503830,98.932297 126.338356,100.219429 125.249649,103.077728 
	C123.014435,108.946106 121.345718,115.030258 119.218094,121.120270 
	C118.659859,121.748665 118.327339,122.282387 117.994827,122.816101 
	C89.931396,122.877769 61.867977,122.947426 33.804523,122.996880 
	C23.507502,123.015030 13.210394,122.985344 2.304201,122.747406 
	C1.489949,122.309196 1.258257,122.136749 1.000000,122.000000 
	C1.000000,102.312439 1.000000,82.624878 1.244514,62.450089 
	C1.489027,61.962860 1.965733,61.847622 1.965733,61.847626 
z"/>
<path fill="#FCD116" opacity="1.000000" stroke="none" 
	d="
M148.000107,85.068893 
	C146.230469,79.580452 144.377075,74.116837 142.738541,68.589523 
	C142.196579,66.761276 142.208313,64.768890 141.983093,62.510376 
	C179.561630,62.119884 217.123962,62.071159 254.686279,62.020679 
	C261.168549,62.011967 267.650787,61.995811 274.590942,61.994911 
	C275.048828,62.006725 274.964020,62.143093 275.118256,62.307297 
	C275.492798,62.678238 275.735291,62.854404 276.000000,63.000000 
	C276.000000,82.354225 276.000000,101.708458 275.815308,121.647461 
	C275.397339,122.408974 275.190704,122.612755 275.010742,122.843582 
	C235.986023,122.855042 196.961288,122.866501 157.473160,122.618362 
	C157.009750,122.358765 156.999695,121.970039 157.170776,121.702209 
	C155.547607,115.425232 153.989792,109.330498 151.858765,103.443260 
	C150.803253,100.527229 151.295929,99.011009 153.789352,97.329384 
	C159.040848,93.787636 164.084488,89.937706 169.213440,86.214233 
	C169.072372,85.832458 168.931305,85.450676 168.790253,85.068893 
	C161.860199,85.068893 154.930161,85.068893 148.000107,85.068893 
z"/>
<path fill="#CA0027" opacity="1.000000" stroke="none" 
	d="
M1.827560,61.681679 
	C1.965733,61.847622 1.489027,61.962860 1.244514,61.981430 
	C1.000000,62.000000 1.000000,61.500000 1.000000,61.250000 
	C1.257041,61.135490 1.486837,61.307404 1.827560,61.681679 
z"/>
<path fill="#CA0027" opacity="1.000000" stroke="none" 
	d="
M275.059753,61.927177 
	C275.227570,61.609680 275.418701,61.403515 275.822052,61.114563 
	C276.000000,61.000000 276.000000,61.500000 275.737335,61.759239 
	C275.304474,62.060020 275.134247,62.101555 274.964020,62.143093 
	C274.964020,62.143093 275.048828,62.006725 275.059753,61.927177 
z"/>
<path fill="#FCD116" opacity="1.000000" stroke="none" 
	d="
M275.118256,62.307297 
	C275.134247,62.101555 275.304474,62.060020 275.737335,62.009239 
	C276.000000,62.000000 276.000000,62.500000 276.000000,62.750000 
	C275.735291,62.854404 275.492798,62.678238 275.118256,62.307297 
z"/>
<path fill="#F8CF15" opacity="1.000000" stroke="none" 
	d="
M1.000000,122.250000 
	C1.258257,122.136749 1.489949,122.309196 1.838656,122.680458 
	C1.821735,122.889771 1.661234,122.935966 1.250366,122.991089 
	C1.000000,123.000000 1.000000,122.500000 1.000000,122.250000 
z"/>
<path fill="#F8CF15" opacity="1.000000" stroke="none" 
	d="
M275.253296,122.912880 
	C275.190704,122.612755 275.397339,122.408974 275.815308,122.116119 
	C276.000000,122.000000 276.000000,122.500000 276.000000,122.750000 
	C275.831970,122.994057 275.663910,122.988121 275.253296,122.912880 
z"/>
<path fill="#F8CF15" opacity="1.000000" stroke="none" 
	d="
M156.999695,121.970032 
	C156.999695,121.970039 157.009750,122.358765 157.008759,122.553192 
	C144.315140,122.798813 131.622528,122.850021 118.462357,122.858658 
	C118.327339,122.282387 118.659859,121.748665 119.596146,121.254150 
	C126.292206,117.131355 132.384506,112.969360 138.462082,108.817413 
	C138.801498,108.953804 139.146027,109.020020 139.403656,109.206360 
	C145.274750,113.452988 151.136337,117.712746 156.999695,121.970032 
z"/>
<path fill="#070601" opacity="1.000000" stroke="none" 
	d="
M157.170776,121.702209 
	C151.136337,117.712746 145.274750,113.452988 139.403656,109.206360 
	C139.146027,109.020020 138.801498,108.953804 138.462082,108.817413 
	C132.384506,112.969360 126.292206,117.131355 119.821854,121.159470 
	C121.345718,115.030258 123.014435,108.946106 125.249649,103.077728 
	C126.338356,100.219429 125.503830,98.932297 123.292702,97.408554 
	C118.050621,93.796120 112.960709,89.962883 106.604027,85.342926 
	C114.423264,85.342926 120.685890,85.221733 126.940231,85.396736 
	C129.839783,85.477859 131.375626,84.787483 132.223267,81.670471 
	C133.910553,75.465881 136.178467,69.419189 138.492538,62.445213 
	C140.769409,69.288330 142.715729,75.349739 144.834717,81.350174 
	C145.332703,82.760361 146.413773,83.964630 147.613342,85.166260 
	C154.930161,85.068893 161.860199,85.068893 168.790253,85.068893 
	C168.931305,85.450676 169.072372,85.832458 169.213440,86.214233 
	C164.084488,89.937706 159.040848,93.787636 153.789352,97.329384 
	C151.295929,99.011009 150.803253,100.527229 151.858765,103.443260 
	C153.989792,109.330498 155.547607,115.425232 157.170776,121.702209 
z"/>
</svg>