<svg version="1.1" id="Layer_1" xmlns="http://www.w3.org/2000/svg" xmlns:xlink="http://www.w3.org/1999/xlink" x="0px" y="0px"
	 width="100%" viewBox="0 0 225 225" enable-background="new 0 0 225 225" xml:space="preserve">
<path fill="#FEFEFE" opacity="1.000000" stroke="none" 
	d="
M127.000000,226.000000 
	C84.666672,226.000000 42.833340,226.000000 1.000006,226.000000 
	C1.000004,151.000000 1.000004,76.000015 1.000002,1.000016 
	C75.999992,1.000010 150.999985,1.000010 225.999969,1.000005 
	C225.999985,75.999985 225.999985,150.999969 226.000000,225.999969 
	C193.166672,226.000000 160.333328,226.000000 127.000000,226.000000 
M115.978600,134.371552 
	C133.456940,134.371552 150.935272,134.371552 168.685089,134.371552 
	C166.053329,148.418671 158.449448,158.030304 147.196899,165.863724 
	C137.723770,170.980927 127.794731,174.253998 116.854912,174.356400 
	C108.126457,174.438110 99.651482,173.546661 91.487473,170.333237 
	C73.720459,163.339935 62.162231,150.368515 55.202915,132.040146 
	C51.511898,119.404190 51.883862,106.777565 55.799595,93.673836 
	C69.574989,54.161850 117.777779,39.371078 151.097763,65.607933 
	C161.016663,55.746902 170.895950,45.925247 180.842102,36.037128 
	C180.851791,36.069695 180.853271,35.858967 180.748795,35.759064 
	C180.150604,35.187092 179.551666,34.611237 178.908890,34.091217 
	C152.484009,12.713374 122.388184,5.584527 89.544106,13.281013 
	C58.420124,20.574423 35.361244,39.071453 20.699390,68.604134 
	C17.581223,78.863258 13.152417,88.931335 11.623229,99.422081 
	C8.626049,119.983742 11.207834,140.130356 21.074373,159.586639 
	C43.329895,200.039368 77.542389,219.123337 123.578201,215.951111 
	C145.230164,214.459122 164.327118,206.029648 180.854523,190.738434 
	C207.936340,164.174530 215.338791,131.733902 210.196228,95.434074 
	C208.903290,95.097778 208.431168,94.867043 207.959351,94.867668 
	C176.970398,94.908943 145.981445,94.968918 114.397141,95.040321 
	C114.236839,95.368965 114.076538,95.697601 113.736183,96.946495 
	C113.798607,108.956215 113.861023,120.965942 113.964531,133.632217 
	C114.331566,133.813095 114.698601,133.993973 115.978600,134.371552 
z"/>
<path fill="#EA4335" opacity="1.000000" stroke="none" 
	d="
M21.100046,68.012779 
	C35.361244,39.071453 58.420124,20.574423 89.544106,13.281013 
	C122.388184,5.584527 152.484009,12.713374 178.908890,34.091217 
	C179.551666,34.611237 180.150604,35.187092 180.748795,35.759064 
	C180.853271,35.858967 180.851791,36.069695 180.842102,36.037128 
	C170.895950,45.925247 161.016663,55.746902 151.097763,65.607933 
	C117.777779,39.371078 69.574989,54.161850 55.299942,93.658569 
	C43.566875,85.099792 32.333462,76.556290 21.100046,68.012779 
z"/>
<path fill="#34A853" opacity="1.000000" stroke="none" 
	d="
M180.284927,191.021362 
	C164.327118,206.029648 145.230164,214.459122 123.578201,215.951111 
	C77.542389,219.123337 43.329895,200.039368 21.385433,159.092926 
	C32.906071,150.012360 44.115654,141.425522 55.325233,132.838684 
	C62.162231,150.368515 73.720459,163.339935 91.487473,170.333237 
	C99.651482,173.546661 108.126457,174.438110 116.854912,174.356400 
	C127.794731,174.253998 137.723770,170.980927 147.846100,165.950928 
	C159.091858,174.365860 169.688385,182.693619 180.284927,191.021362 
z"/>
<path fill="#4386F4" opacity="1.000000" stroke="none" 
	d="
M180.569733,190.879898 
	C169.688385,182.693619 159.091858,174.365860 148.196320,165.845459 
	C158.449448,158.030304 166.053329,148.418671 168.685089,134.371552 
	C150.935272,134.371552 133.456940,134.371552 115.397629,134.015274 
	C114.518913,133.431213 114.221176,133.203445 113.923439,132.975662 
	C113.861023,120.965942 113.798607,108.956215 114.057663,96.381241 
	C114.583611,95.553078 114.788063,95.290169 114.992508,95.027252 
	C145.981445,94.968918 176.970398,94.908943 207.959351,94.867668 
	C208.431168,94.867043 208.903290,95.097778 210.196228,95.434074 
	C215.338791,131.733902 207.936340,164.174530 180.569733,190.879898 
z"/>
<path fill="#FBBC06" opacity="1.000000" stroke="none" 
	d="
M55.264076,132.439423 
	C44.115654,141.425522 32.906071,150.012360 21.403084,158.733673 
	C11.207834,140.130356 8.626049,119.983742 11.623229,99.422081 
	C13.152417,88.931335 17.581223,78.863258 20.899719,68.308456 
	C32.333462,76.556290 43.566875,85.099792 55.045059,93.900597 
	C51.883862,106.777565 51.511898,119.404190 55.264076,132.439423 
z"/>
<path fill="#357FF4" opacity="1.000000" stroke="none" 
	d="
M114.694824,95.033791 
	C114.788063,95.290169 114.583611,95.553078 114.147690,95.921112 
	C114.076538,95.697601 114.236839,95.368965 114.694824,95.033791 
z"/>
<path fill="#357FF4" opacity="1.000000" stroke="none" 
	d="
M113.943985,133.303940 
	C114.221176,133.203445 114.518913,133.431213 114.941139,133.916931 
	C114.698601,133.993973 114.331566,133.813095 113.943985,133.303940 
z"/>
</svg>