<svg version="1.1" id="Layer_1" xmlns="http://www.w3.org/2000/svg" xmlns:xlink="http://www.w3.org/1999/xlink" x="0px" y="0px"
	 width="100%" viewBox="0 0 290 174" enable-background="new 0 0 290 174" xml:space="preserve">
<path fill="#C8102E" opacity="1.000000" stroke="none" 
	d="
M162.000000,175.000000 
	C151.645767,175.000000 141.291550,175.000000 130.468658,174.531342 
	C129.999985,153.269897 130.027435,132.477020 129.953903,111.684479 
	C129.947174,109.782120 129.294067,107.882034 128.765564,105.850227 
	C128.367645,105.527092 128.177414,105.306862 127.702065,104.786743 
	C125.413101,104.343086 123.441521,104.023300 121.469704,104.021873 
	C81.313156,103.992722 41.156574,104.000000 1.000000,104.000000 
	C1.000000,93.645775 1.000000,83.291542 1.468657,72.468658 
	C41.895157,72.000000 81.853027,72.015785 121.810776,71.954926 
	C123.880722,71.951775 125.949677,71.294037 128.149658,70.765488 
	C128.472717,70.367592 128.692947,70.177422 129.213104,69.702164 
	C129.656830,67.413658 129.974136,65.442650 129.977570,63.471104 
	C130.013794,42.647449 130.000000,21.823713 130.000000,1.000000 
	C140.354233,1.000000 150.708450,1.000000 161.531342,1.468657 
	C162.000000,22.730101 161.972549,43.522984 162.046066,64.315514 
	C162.052811,66.217888 162.705902,68.117973 163.234390,70.149803 
	C163.632309,70.472969 163.822556,70.693207 164.297958,71.213303 
	C166.586929,71.656937 168.558517,71.976692 170.530334,71.978127 
	C210.686874,72.007271 250.843445,72.000000 291.000000,72.000000 
	C291.000000,82.354225 291.000000,92.708458 290.531342,103.531342 
	C250.104767,104.000000 210.146820,103.984200 170.189011,104.045082 
	C168.119095,104.048241 166.050186,104.706154 163.850372,105.234818 
	C163.527618,105.632729 163.307419,105.822754 162.787140,106.297699 
	C162.343292,108.586166 162.025879,110.557167 162.022446,112.528702 
	C161.986206,133.352417 162.000000,154.176224 162.000000,175.000000 
z"/>
<path fill="#FDFAFB" opacity="1.000000" stroke="none" 
	d="
M163.059357,105.980484 
	C163.307419,105.822754 163.527618,105.632729 164.318146,105.284332 
	C180.533035,105.165253 196.149750,105.197060 211.766403,105.173691 
	C238.177628,105.134171 264.588806,105.059746 291.000000,105.000000 
	C291.000000,108.692909 291.000000,112.385818 290.531342,116.541931 
	C269.920929,117.005142 249.779190,117.005142 229.637451,117.005142 
	C229.611359,117.254967 229.585281,117.504784 229.559189,117.754608 
	C230.396835,118.159271 231.234497,118.563934 232.285645,119.230377 
	C243.848175,126.335678 255.155838,133.249130 266.560333,139.999008 
	C274.639099,144.780533 282.848755,149.340912 291.000000,154.000000 
	C291.000000,156.041672 291.000000,158.083328 290.622711,160.559555 
	C288.750458,160.156937 287.234406,159.355103 285.763977,158.476837 
	C276.386261,152.875656 267.014191,147.265015 257.648956,141.643021 
	C248.649567,136.240662 239.673752,130.798920 230.661606,125.417992 
	C226.311691,122.820770 222.162659,119.073303 217.454697,118.092094 
	C211.341827,116.818069 204.762741,117.780891 198.384338,117.780891 
	C199.595505,119.912720 200.991257,120.970955 202.484497,121.866707 
	C221.708527,133.398666 240.981628,144.849319 260.166504,156.445908 
	C270.187866,162.503479 280.060303,168.807373 290.000000,175.000000 
	C278.979095,175.000000 267.958221,175.000000 256.440002,174.649963 
	C254.804779,173.615799 253.669022,172.928116 252.528687,172.248077 
	C227.346512,157.231018 202.163834,142.214813 176.669846,126.955231 
	C176.092224,126.590096 175.826019,126.468178 175.559799,126.346260 
	C175.376968,126.758118 175.035049,127.169662 175.034241,127.581871 
	C175.003372,143.387863 175.003769,159.193939 175.000000,175.000000 
	C171.307098,175.000000 167.614182,175.000000 163.537964,174.536880 
	C163.122879,151.376007 163.091110,128.678238 163.059357,105.980484 
z"/>
<path fill="#FDFAFB" opacity="1.000000" stroke="none" 
	d="
M128.940918,70.019409 
	C128.692947,70.177422 128.472717,70.367592 127.681900,70.715996 
	C111.799156,70.835083 96.514709,70.803551 81.230354,70.826515 
	C54.486874,70.866699 27.743448,70.940361 1.000000,71.000000 
	C1.000000,67.307091 1.000000,63.614182 1.468651,59.457977 
	C22.078728,58.994686 42.220154,58.994686 62.361580,58.994686 
	C62.384163,58.743198 62.406746,58.491714 62.429325,58.240227 
	C61.595421,57.837318 60.761517,57.434410 59.714111,56.769756 
	C48.151714,49.664337 36.844257,42.750652 25.439869,36.000736 
	C17.361113,31.219162 9.151307,26.658998 1.000000,22.000000 
	C1.000000,19.958334 1.000000,17.916666 1.356310,15.430371 
	C23.236919,27.876816 44.871948,40.588634 66.215019,53.773079 
	C72.266167,57.511108 78.226463,59.944950 85.328346,58.982021 
	C87.948059,58.626823 90.549820,58.139202 93.159767,57.711983 
	C91.031326,56.009254 89.054214,54.059719 86.748543,52.646061 
	C76.159309,46.153599 65.480804,39.806644 54.829468,33.415592 
	C43.810661,26.804043 32.747097,20.265985 21.778847,13.571694 
	C15.111783,9.502563 8.588095,5.198518 2.000000,1.000000 
	C13.020894,1.000000 24.041788,1.000000 35.561745,1.349683 
	C37.198277,2.384124 38.333275,3.073024 39.473579,3.753035 
	C64.654984,18.769756 89.836983,33.785496 115.330490,49.045143 
	C115.907433,49.412395 116.172752,49.535923 116.438072,49.659447 
	C116.621536,49.247890 116.964630,48.836651 116.965431,48.424736 
	C116.996475,32.616528 116.996155,16.808260 117.000000,1.000000 
	C120.692909,1.000000 124.385826,1.000000 128.462189,1.463139 
	C128.877411,24.623987 128.909164,47.321697 128.940918,70.019409 
z"/>
<path fill="#FDFAFB" opacity="1.000000" stroke="none" 
	d="
M128.019333,105.058853 
	C128.177414,105.306862 128.367645,105.527092 128.716080,106.317993 
	C128.894760,129.610962 128.947388,152.305481 129.000000,175.000000 
	C125.307091,175.000000 121.614182,175.000000 117.457176,174.531357 
	C116.992844,159.132568 117.015511,144.202194 116.870773,129.273453 
	C116.866837,128.867203 118.959442,124.790947 114.691704,127.251312 
	C98.432159,136.858521 82.472855,146.348404 66.600624,155.981750 
	C56.334507,162.212585 46.195797,168.653320 36.000000,175.000000 
	C32.307091,175.000000 28.614182,175.000000 24.637646,174.706284 
	C54.969246,156.061279 85.584480,137.709976 116.199707,119.358688 
	C116.059845,118.908081 115.919975,118.457481 115.780113,118.006874 
	C111.390213,118.006874 106.921326,118.523415 102.631737,117.867439 
	C97.965607,117.153885 94.486153,118.888313 90.787209,121.133522 
	C73.342178,131.722443 55.793709,142.140808 38.335110,152.707550 
	C26.179001,160.065002 14.108656,167.564148 2.000000,175.000000 
	C1.666668,174.027145 1.060600,173.058685 1.044919,172.080734 
	C0.953314,166.367661 1.000000,160.652374 1.359217,154.523331 
	C21.119942,142.395859 40.521450,130.682907 60.272125,118.928139 
	C61.212643,118.467674 61.803997,118.049011 63.285725,117.000000 
	C41.830250,117.000000 21.415125,117.000000 1.000000,117.000000 
	C1.000000,113.307091 1.000000,109.614182 1.463155,105.537689 
	C43.957317,105.122360 85.988327,105.090607 128.019333,105.058853 
z"/>
<path fill="#FDFAFB" opacity="1.000000" stroke="none" 
	d="
M163.980682,70.941193 
	C163.822556,70.693207 163.632309,70.472969 163.283875,69.682037 
	C163.105194,46.389053 163.052597,23.694527 163.000000,1.000000 
	C166.692902,1.000000 170.385818,1.000000 174.542847,1.468646 
	C175.007187,16.864779 174.984192,31.792488 175.128738,46.718578 
	C175.132751,47.132660 173.046890,51.188595 177.308289,48.748653 
	C193.568314,39.141224 209.528122,29.651155 225.400818,20.017550 
	C235.666489,13.787020 245.804688,7.346447 256.000000,0.999999 
	C259.692902,1.000000 263.385834,1.000000 267.366882,1.296937 
	C236.624817,20.219135 205.450989,38.612648 174.974457,58.228870 
	C178.696182,58.993153 182.037369,58.734692 185.323700,59.049252 
	C191.371353,59.628117 196.477051,57.884876 201.647354,54.678722 
	C218.993484,43.922192 236.630539,33.636066 254.096008,23.070293 
	C266.115692,15.798949 278.035522,8.362601 290.000000,0.999996 
	C290.333344,1.972840 290.939423,2.941316 290.955109,3.919256 
	C291.046692,9.632339 291.000000,15.347631 290.640778,21.476704 
	C270.880066,33.604179 251.478546,45.317131 231.727890,57.071884 
	C230.787415,57.532364 230.196091,57.951038 228.714554,59.000000 
	C250.169830,59.000000 270.584900,59.000000 291.000000,59.000000 
	C291.000000,62.692909 291.000000,66.385818 290.536865,70.462326 
	C248.042694,70.877686 206.011688,70.909439 163.980682,70.941193 
z"/>
<path fill="#032169" opacity="1.000000" stroke="none" 
	d="
M36.468658,175.000000 
	C46.195797,168.653320 56.334507,162.212585 66.600624,155.981750 
	C82.472855,146.348404 98.432159,136.858521 114.873215,127.614120 
	C115.594330,129.876114 115.964874,131.831146 115.972168,133.787537 
	C116.023392,147.524857 115.999725,161.262482 116.000000,175.000000 
	C89.645775,175.000000 63.291546,175.000000 36.468658,175.000000 
z"/>
<path fill="#032169" opacity="1.000000" stroke="none" 
	d="
M176.981232,127.198448 
	C202.163834,142.214813 227.346512,157.231018 252.528687,172.248077 
	C253.669022,172.928116 254.804779,173.615799 255.971344,174.649963 
	C229.645767,175.000000 203.291550,175.000000 176.468903,174.531342 
	C176.000549,160.526672 175.958984,146.990417 176.044449,133.454941 
	C176.057632,131.367554 176.654373,129.283859 176.981232,127.198448 
z"/>
<path fill="#032169" opacity="1.000000" stroke="none" 
	d="
M255.531342,0.999999 
	C245.804688,7.346447 235.666489,13.787020 225.400818,20.017550 
	C209.528122,29.651155 193.568314,39.141224 177.126770,48.385849 
	C176.405594,46.123875 176.034912,44.168835 176.027634,42.212448 
	C175.976471,28.475121 176.000198,14.737515 176.000000,1.000000 
	C202.354233,1.000000 228.708450,1.000000 255.531342,0.999999 
z"/>
<path fill="#032169" opacity="1.000000" stroke="none" 
	d="
M115.018860,48.801422 
	C89.836983,33.785496 64.654984,18.769756 39.473579,3.753035 
	C38.333275,3.073024 37.198277,2.384124 36.030403,1.349683 
	C62.354229,1.000000 88.708458,1.000000 115.531097,1.468657 
	C115.999382,15.473271 116.040871,29.009491 115.955353,42.544907 
	C115.942162,44.632301 115.345619,46.716007 115.018860,48.801422 
z"/>
<path fill="#C8122F" opacity="1.000000" stroke="none" 
	d="
M289.531433,1.000000 
	C278.035522,8.362601 266.115692,15.798949 254.096008,23.070293 
	C236.630539,33.636066 218.993484,43.922192 201.647354,54.678722 
	C196.477051,57.884876 191.371353,59.628117 185.323700,59.049252 
	C182.037369,58.734692 178.696182,58.993153 174.974457,58.228870 
	C205.450989,38.612648 236.624817,20.219135 267.827515,1.296937 
	C275.020966,1.000000 282.041901,1.000000 289.531433,1.000000 
z"/>
<path fill="#C8122F" opacity="1.000000" stroke="none" 
	d="
M2.468577,175.000000 
	C14.108656,167.564148 26.179001,160.065002 38.335110,152.707550 
	C55.793709,142.140808 73.342178,131.722443 90.787209,121.133522 
	C94.486153,118.888313 97.965607,117.153885 102.631737,117.867439 
	C106.921326,118.523415 111.390213,118.006874 115.780113,118.006874 
	C115.919975,118.457481 116.059845,118.908081 116.199707,119.358688 
	C85.584480,137.709976 54.969246,156.061279 24.177010,174.706284 
	C16.979052,175.000000 9.958103,175.000000 2.468577,175.000000 
z"/>
<path fill="#032169" opacity="1.000000" stroke="none" 
	d="
M291.000000,153.531342 
	C282.848755,149.340912 274.639099,144.780533 266.560333,139.999008 
	C255.155838,133.249130 243.848175,126.335678 232.658630,119.053513 
	C234.781433,118.410873 236.744293,118.035095 238.708130,118.029778 
	C256.138641,117.982582 273.569336,118.000961 291.000000,118.000000 
	C291.000000,129.687561 291.000000,141.375122 291.000000,153.531342 
z"/>
<path fill="#032169" opacity="1.000000" stroke="none" 
	d="
M59.922958,118.969940 
	C40.521450,130.682907 21.119942,142.395859 1.359217,154.054413 
	C1.000000,142.312439 1.000000,130.624878 1.468657,118.469597 
	C19.167685,118.002243 36.398201,117.969658 53.628242,118.045624 
	C55.727798,118.054886 57.824780,118.647614 59.922958,118.969940 
z"/>
<path fill="#032169" opacity="1.000000" stroke="none" 
	d="
M1.000000,22.468658 
	C9.151307,26.658998 17.361113,31.219162 25.439869,36.000736 
	C36.844257,42.750652 48.151714,49.664337 59.341133,56.946625 
	C57.218349,57.589188 55.255516,57.964897 53.291676,57.970211 
	C35.861217,58.017410 18.430582,57.999027 1.000000,58.000000 
	C1.000000,46.312439 1.000000,34.624878 1.000000,22.468658 
z"/>
<path fill="#032169" opacity="1.000000" stroke="none" 
	d="
M232.077042,57.030083 
	C251.478546,45.317131 270.880066,33.604179 290.640778,21.945614 
	C291.000000,33.687561 291.000000,45.375122 290.531342,57.530396 
	C272.832306,57.997742 255.601791,58.030327 238.371765,57.954357 
	C236.272217,57.945099 234.175217,57.352390 232.077042,57.030083 
z"/>
<path fill="#C8122F" opacity="1.000000" stroke="none" 
	d="
M1.500000,1.000000 
	C8.588095,5.198518 15.111783,9.502563 21.778847,13.571694 
	C32.747097,20.265985 43.810661,26.804043 54.829468,33.415592 
	C65.480804,39.806644 76.159309,46.153599 86.748543,52.646061 
	C89.054214,54.059719 91.031326,56.009254 93.159767,57.711983 
	C90.549820,58.139202 87.948059,58.626823 85.328346,58.982021 
	C78.226463,59.944950 72.266167,57.511108 66.215019,53.773079 
	C44.871948,40.588634 23.236919,27.876816 1.356310,14.992871 
	C1.000000,10.333333 1.000000,5.666667 1.500000,1.000000 
z"/>
<path fill="#C8122F" opacity="1.000000" stroke="none" 
	d="
M290.500000,175.000000 
	C280.060303,168.807373 270.187866,162.503479 260.166504,156.445908 
	C240.981628,144.849319 221.708527,133.398666 202.484497,121.866707 
	C200.991257,120.970955 199.595505,119.912720 198.384338,117.780891 
	C204.762741,117.780891 211.341827,116.818069 217.454697,118.092094 
	C222.162659,119.073303 226.311691,122.820770 230.661606,125.417992 
	C239.673752,130.798920 248.649567,136.240662 257.648956,141.643021 
	C267.014191,147.265015 276.386261,152.875656 285.763977,158.476837 
	C287.234406,159.355103 288.750458,160.156937 290.622711,160.997055 
	C291.000000,165.666672 291.000000,170.333328 290.500000,175.000000 
z"/>
<path fill="#C50018" opacity="1.000000" stroke="none" 
	d="
M127.702065,104.786743 
	C85.988327,105.090607 43.957317,105.122360 1.463155,105.077057 
	C1.000000,105.000000 1.000000,104.500000 1.000000,104.250000 
	C41.156574,104.000000 81.313156,103.992722 121.469704,104.021873 
	C123.441521,104.023300 125.413101,104.343086 127.702065,104.786743 
z"/>
<path fill="#C50018" opacity="1.000000" stroke="none" 
	d="
M291.000000,104.750000 
	C264.588806,105.059746 238.177628,105.134171 211.766403,105.173691 
	C196.149750,105.197060 180.533035,105.165253 164.448578,105.108749 
	C166.050186,104.706154 168.119095,104.048241 170.189011,104.045082 
	C210.146820,103.984200 250.104767,104.000000 290.531342,104.000000 
	C291.000000,104.000000 291.000000,104.500000 291.000000,104.750000 
z"/>
<path fill="#C50018" opacity="1.000000" stroke="none" 
	d="
M1.000000,71.250000 
	C27.743448,70.940361 54.486874,70.866699 81.230354,70.826515 
	C96.514709,70.803551 111.799156,70.835083 127.551323,70.891571 
	C125.949677,71.294037 123.880722,71.951775 121.810776,71.954926 
	C81.853027,72.015785 41.895157,72.000000 1.468657,72.000000 
	C1.000000,72.000000 1.000000,71.500000 1.000000,71.250000 
z"/>
<path fill="#C50018" opacity="1.000000" stroke="none" 
	d="
M164.297958,71.213303 
	C206.011688,70.909439 248.042694,70.877686 290.536865,70.922966 
	C291.000000,71.000000 291.000000,71.500000 291.000000,71.750000 
	C250.843445,72.000000 210.686874,72.007271 170.530334,71.978127 
	C168.558517,71.976692 166.586929,71.656937 164.297958,71.213303 
z"/>
<path fill="#C50018" opacity="1.000000" stroke="none" 
	d="
M129.213089,69.702164 
	C128.909164,47.321697 128.877411,24.623987 128.922821,1.463139 
	C129.000000,1.000000 129.500000,1.000000 129.750000,1.000000 
	C130.000000,21.823713 130.013794,42.647449 129.977570,63.471104 
	C129.974136,65.442650 129.656830,67.413658 129.213089,69.702164 
z"/>
<path fill="#C50018" opacity="1.000000" stroke="none" 
	d="
M129.250000,175.000000 
	C128.947388,152.305481 128.894760,129.610962 128.891632,106.448669 
	C129.294067,107.882034 129.947174,109.782120 129.953903,111.684479 
	C130.027435,132.477020 129.999985,153.269897 130.000000,174.531342 
	C130.000000,175.000000 129.500000,175.000000 129.250000,175.000000 
z"/>
<path fill="#C50018" opacity="1.000000" stroke="none" 
	d="
M162.787140,106.297699 
	C163.091110,128.678238 163.122879,151.376007 163.077332,174.536880 
	C163.000000,175.000000 162.500000,175.000000 162.250000,175.000000 
	C162.000000,154.176224 161.986206,133.352417 162.022446,112.528702 
	C162.025879,110.557167 162.343292,108.586166 162.787140,106.297699 
z"/>
<path fill="#C50018" opacity="1.000000" stroke="none" 
	d="
M162.750000,1.000000 
	C163.052597,23.694527 163.105194,46.389053 163.108322,69.551346 
	C162.705902,68.117973 162.052811,66.217888 162.046066,64.315514 
	C161.972549,43.522984 162.000000,22.730101 162.000000,1.468657 
	C162.000000,1.000000 162.500000,1.000000 162.750000,1.000000 
z"/>
<path fill="#010159" opacity="1.000000" stroke="none" 
	d="
M1.000000,58.250000 
	C18.430582,57.999027 35.861217,58.017410 53.291676,57.970211 
	C55.255516,57.964897 57.218349,57.589188 59.554630,57.208374 
	C60.761517,57.434410 61.595421,57.837318 62.429325,58.240227 
	C62.406746,58.491714 62.384163,58.743198 62.361580,58.994686 
	C42.220154,58.994686 22.078728,58.994686 1.468651,58.997345 
	C1.000000,59.000000 1.000000,58.500000 1.000000,58.250000 
z"/>
<path fill="#010159" opacity="1.000000" stroke="none" 
	d="
M291.000000,117.750000 
	C273.569336,118.000961 256.138641,117.982582 238.708130,118.029778 
	C236.744293,118.035095 234.781433,118.410873 232.445129,118.791733 
	C231.234497,118.563934 230.396835,118.159271 229.559189,117.754608 
	C229.585281,117.504784 229.611359,117.254967 229.637451,117.005142 
	C249.779190,117.005142 269.920929,117.005142 290.531342,117.002571 
	C291.000000,117.000000 291.000000,117.500000 291.000000,117.750000 
z"/>
<path fill="#010159" opacity="1.000000" stroke="none" 
	d="
M60.272121,118.928131 
	C57.824780,118.647614 55.727798,118.054886 53.628242,118.045624 
	C36.398201,117.969658 19.167685,118.002243 1.468657,118.000938 
	C1.000000,118.000000 1.000000,117.500000 1.000000,117.250000 
	C21.415125,117.000000 41.830250,117.000000 63.285725,117.000000 
	C61.803997,118.049011 61.212643,118.467674 60.272121,118.928131 
z"/>
<path fill="#010159" opacity="1.000000" stroke="none" 
	d="
M231.727890,57.071884 
	C234.175217,57.352390 236.272217,57.945099 238.371765,57.954357 
	C255.601791,58.030327 272.832306,57.997742 290.531342,57.999054 
	C291.000000,58.000000 291.000000,58.500000 291.000000,58.750000 
	C270.584900,59.000000 250.169830,59.000000 228.714554,59.000000 
	C230.196091,57.951038 230.787415,57.532364 231.727890,57.071884 
z"/>
<path fill="#000059" opacity="1.000000" stroke="none" 
	d="
M175.750000,1.000000 
	C176.000198,14.737515 175.976471,28.475121 176.027634,42.212448 
	C176.034912,44.168835 176.405594,46.123875 176.789612,48.442341 
	C173.046890,51.188595 175.132751,47.132660 175.128738,46.718578 
	C174.984192,31.792488 175.007187,16.864779 175.003479,1.468646 
	C175.000000,1.000000 175.500000,1.000000 175.750000,1.000000 
z"/>
<path fill="#000059" opacity="1.000000" stroke="none" 
	d="
M116.250000,175.000000 
	C115.999725,161.262482 116.023392,147.524857 115.972168,133.787537 
	C115.964874,131.831146 115.594330,129.876114 115.210388,127.557632 
	C118.959442,124.790947 116.866837,128.867203 116.870773,129.273453 
	C117.015511,144.202194 116.992844,159.132568 116.996536,174.531357 
	C117.000000,175.000000 116.500000,175.000000 116.250000,175.000000 
z"/>
<path fill="#000059" opacity="1.000000" stroke="none" 
	d="
M176.669830,126.955231 
	C176.654373,129.283859 176.057632,131.367554 176.044449,133.454941 
	C175.958984,146.990417 176.000549,160.526672 176.000244,174.531342 
	C176.000000,175.000000 175.500000,175.000000 175.250000,175.000000 
	C175.003769,159.193939 175.003372,143.387863 175.034241,127.581871 
	C175.035049,127.169662 175.376968,126.758118 175.559799,126.346260 
	C175.826019,126.468178 176.092224,126.590096 176.669830,126.955231 
z"/>
<path fill="#000059" opacity="1.000000" stroke="none" 
	d="
M115.330490,49.045143 
	C115.345619,46.716007 115.942162,44.632301 115.955353,42.544907 
	C116.040871,29.009491 115.999382,15.473271 115.999756,1.468657 
	C116.000000,1.000000 116.500000,1.000000 116.750000,1.000000 
	C116.996155,16.808260 116.996475,32.616528 116.965431,48.424736 
	C116.964630,48.836651 116.621536,49.247890 116.438072,49.659447 
	C116.172752,49.535923 115.907433,49.412395 115.330490,49.045143 
z"/>
</svg>